<svg width="380" height="48" viewBox="0 0 380 48" fill="none" xmlns="http://www.w3.org/2000/svg">
<path d="M134.406 39.6586C132.755 41.4938 130.339 42.9717 127.159 44.0922C123.979 45.2136 120.493 45.7742 116.702 45.7742C110.872 45.7742 106.214 43.9906 102.728 40.4233C99.242 36.856 97.3767 31.8919 97.1321 25.5316L97.1016 21.6792C97.1016 17.2964 97.8762 13.4742 99.4255 10.2127C100.975 6.93049 103.186 4.41306 106.061 2.66037C108.955 0.886303 112.299 0 116.09 0C121.635 0 125.936 1.27383 128.994 3.8222C132.072 6.34995 133.866 10.1309 134.376 15.1665H124.04C123.673 12.6793 122.878 10.9059 121.655 9.84575C120.432 8.78558 118.699 8.25588 116.457 8.25588C113.766 8.25588 111.687 9.39708 110.219 11.6802C108.752 13.9634 108.008 17.2249 107.987 21.4648V24.1561C107.987 28.6001 108.741 31.9427 110.25 34.1853C111.779 36.4073 114.174 37.5183 117.436 37.5183C120.228 37.5183 122.308 36.8965 123.673 35.6529V28.7423H116.212V21.3735H134.406V39.6586Z" fill="#1937D6"/>
<path d="M184.412 24.5998C184.412 28.9421 183.608 32.7842 181.997 36.1275C180.386 39.4708 178.093 42.0494 175.117 43.864C172.161 45.6579 168.787 46.5545 164.996 46.5545C161.204 46.5545 157.841 45.6881 154.905 43.9553C151.97 42.2026 149.676 39.7051 148.025 36.4642C146.394 33.2225 145.538 29.5028 145.457 25.3034V22.7962C145.457 18.4333 146.252 14.5912 147.842 11.2685C149.452 7.92523 151.745 5.34663 154.721 3.53205C157.719 1.7182 161.122 0.810547 164.934 0.810547C168.706 0.810547 172.069 1.70791 175.025 3.50187C177.981 5.29508 180.275 7.85377 181.905 11.1764C183.556 14.4785 184.392 18.2705 184.412 22.5517V24.5998ZM173.496 22.7351C173.496 18.311 172.752 14.9581 171.264 12.675C169.797 10.3712 167.687 9.21967 164.934 9.21967C159.553 9.21967 156.709 13.2555 156.403 21.328L156.373 24.5998C156.373 28.962 157.097 32.3156 158.544 34.6599C159.991 37.0042 162.142 38.1764 164.996 38.1764C167.707 38.1764 169.797 37.0249 171.264 34.7211C172.732 32.4173 173.476 29.1049 173.496 24.7832V22.7351Z" fill="#1937D6"/>
<path d="M278.772 27.4963H248.102V32.8015V38.1066H278.772V46.3626H248.102V1.8418H278.838V10.1283H248.102V19.5156H278.772V27.4963Z" fill="#1937D6"/>
<path d="M216.197 33.8114L225.064 1.39941H237.051L222.068 45.9204H210.326L195.465 1.39941H207.359L216.197 33.8114Z" fill="#1937D6"/>
<path d="M306.426 29.9829H300.621V45.6997H289.887V1.17871H307.406C312.689 1.17871 316.814 2.35086 319.791 4.69516C322.767 7.03945 324.256 10.3518 324.256 14.633C324.256 17.7317 323.622 20.3 322.362 22.3385C321.117 24.3771 319.157 26.0281 316.49 27.2923L325.788 45.2407V45.6997H314.287L306.426 29.9829ZM300.621 21.6961H307.406C309.447 21.6961 310.972 21.1664 311.996 20.1062C313.035 19.0261 313.551 17.5276 313.551 15.6114C313.551 13.6951 313.035 12.1973 311.996 11.1165C310.957 10.0158 309.425 9.46553 307.406 9.46553H300.621V21.6961Z" fill="#1937D6"/>
<path d="M64.6237 45.479H53.9219V0.958008H64.6237V45.479Z" fill="#1937D6"/>
<path d="M84.7123 35.141L83.8762 45.4177L74.4356 35.9771L84.7123 35.141Z" fill="#C4C4C4"/>
<path d="M11.4665 45.552L16.6035 28.9485L21.3736 13.5069L26.1743 28.9485L31.3419 45.552H42.8695L26.4189 1.03125H16.3283L0 45.552H11.4665Z" fill="#1937D6"/>
<path d="M21.4129 43.0264L14.7374 35.1684H28.0884L21.4129 43.0264Z" fill="#C4C4C4"/>
<path d="M348.306 46.1419L353.443 29.5383L358.213 14.0967L363.014 29.5383L368.182 46.1419H379.709L363.259 1.62109H353.168L336.84 46.1419H348.306Z" fill="#1937D6"/>
<path d="M358.253 43.6152L351.577 35.7573H364.928L358.253 43.6152Z" fill="#C4C4C4"/>
</svg>
